HIERARCHY
ROOT RootJoint
{
    OFFSET   0.000000   0.000000   0.000000
    CHANNELS 6 Xposition Yposition Zposition Xrotation Yrotation Zrotation
    JOINT pelvis_lowerback
    {
        OFFSET   0.000000   0.093605   0.000000
        CHANNELS 3 Xrotation Yrotation Zrotation
        JOINT lowerback_torso
        {
            OFFSET   0.000000   0.100000   0.000000
            CHANNELS 3 Xrotation Yrotation Zrotation
            JOINT torso_head
            {
                OFFSET   0.000000   0.282350   0.000000
                CHANNELS 3 Xrotation Yrotation Zrotation
                End Site
                {
                    OFFSET   0.000000   0.192650   0.000000
                }
            }
            JOINT rTorso_Clavicle
            {
                OFFSET  -0.001000   0.157500   0.000000
                CHANNELS 3 Xrotation Yrotation Zrotation
                JOINT rShoulder
                {
                    OFFSET  -0.117647   0.000000   0.000000
                    CHANNELS 3 Xrotation Yrotation Zrotation
                    JOINT rElbow
                    {
                        OFFSET  -0.245000   0.000000   0.000000
                        CHANNELS 3 Xrotation Yrotation Zrotation
                        JOINT rWrist
                        {
                            OFFSET  -0.240000   0.000000   0.000000
                            CHANNELS 3 Xrotation Yrotation Zrotation
                            End Site
                            {
                                OFFSET  -0.116353  -0.002500   0.000000
                            }
                        }
                    }
                }
            }
            JOINT lTorso_Clavicle
            {
                OFFSET   0.001000   0.157500   0.000000
                CHANNELS 3 Xrotation Yrotation Zrotation
                JOINT lShoulder
                {
                    OFFSET   0.117647   0.000000   0.000000
                    CHANNELS 3 Xrotation Yrotation Zrotation
                    JOINT lElbow
                    {
                        OFFSET   0.245000   0.000000   0.000000
                        CHANNELS 3 Xrotation Yrotation Zrotation
                        JOINT lWrist
                        {
                            OFFSET   0.240000   0.000000   0.000000
                            CHANNELS 3 Xrotation Yrotation Zrotation
                            End Site
                            {
                                OFFSET   0.116353  -0.002500   0.000000
                            }
                        }
                    }
                }
            }
        }
    }
    JOINT rHip
    {
        OFFSET  -0.100000  -0.051395   0.000000
        CHANNELS 3 Xrotation Yrotation Zrotation
        JOINT rKnee
        {
            OFFSET   0.000000  -0.410000   0.000000
            CHANNELS 3 Xrotation Yrotation Zrotation
            JOINT rAnkle
            {
                OFFSET   0.000000  -0.390000   0.000000
                CHANNELS 3 Xrotation Yrotation Zrotation
                JOINT rToeJoint
                {
                    OFFSET   0.000000  -0.050000   0.130000
                    CHANNELS 3 Xrotation Yrotation Zrotation
                    End Site
                    {
                        OFFSET  -0.010000   0.002000   0.060000
                    }
                }
            }
        }
    }
    JOINT lHip
    {
        OFFSET   0.100000  -0.051395   0.000000
        CHANNELS 3 Xrotation Yrotation Zrotation
        JOINT lKnee
        {
            OFFSET   0.000000  -0.410000   0.000000
            CHANNELS 3 Xrotation Yrotation Zrotation
            JOINT lAnkle
            {
                OFFSET   0.000000  -0.390000   0.000000
                CHANNELS 3 Xrotation Yrotation Zrotation
                JOINT lToeJoint
                {
                    OFFSET   0.000000  -0.050000   0.130000
                    CHANNELS 3 Xrotation Yrotation Zrotation
                    End Site
                    {
                        OFFSET   0.010000   0.002000   0.060000
                    }
                }
            }
        }
    }
}
MOTION
Frames: 12
Frame Time:   0.008333
 -2.376719   0.925631   3.975860   0.000000   0.000000   0.000000   0.000000   0.000000   0.000000   0.000000   0.000000   0.000000   0.000000   0.000000   0.000000   0.000000   0.000000   0.000000   0.000000   0.000000   0.000000   0.000000   0.000000   0.000000   0.000000   0.000000   0.000000   0.000000   0.000000   0.000000   0.000000   0.000000   0.000000   0.000000   0.000000   0.000000   0.000000   0.000000   0.000000   0.000000   0.000000   0.000000   0.000000   0.000000   0.000000   0.000000   0.000000   0.000000   0.000000   0.000000   0.000000   0.000000   0.000000   0.000000   0.000000   0.000000   0.000000   0.000000   0.000000   0.000000   0.000000   0.000000   0.000000
 -2.376812   0.925029   3.974040  -0.101037  -0.043488  -0.129316   0.645921   0.097325   0.113912  -0.234134  -0.050858   0.001171  -0.267696   0.108663   0.050984  -0.325206  -0.316590  -0.154766  -1.012161  -0.025309   1.026960   0.016835   2.307831   0.020390   0.128138  -1.056571  -1.502172  -0.496276   0.477871   0.122524  -1.560878   0.144761  -0.707648   0.015334  -3.214971  -0.048674   0.042754   1.205015   1.287481  -1.125284  -0.138967   0.137570   3.309464  -0.000420  -0.005183  -2.541909  -0.197249  -0.061493  -0.244526  -0.000120   0.000805  -1.118707  -0.160362   0.164631   3.371168  -0.001251  -0.005877  -2.775941   0.198089   0.256890  -0.230954   0.000580   0.000006
 -2.376895   0.923934   3.972290  -0.384911  -0.110984  -0.287491   1.332423   0.210876   0.235070  -0.337961  -0.083550   0.032301  -0.475227   0.213908   0.098595  -0.636680  -0.519186  -0.064337  -1.970331   0.048938   2.181775   0.035938   4.560954   0.035130   0.222842  -1.406115  -2.757752  -0.973509   0.845388   0.062474  -3.033353   0.176037  -1.513796   0.029587  -6.341531  -0.084069   0.035165   1.453511   2.368026  -2.095470  -0.282969   0.275641   6.777434  -0.000659  -0.010297  -4.904854  -0.382722  -0.127283  -0.522300  -0.000305   0.001586  -2.118883  -0.321123   0.359975   7.090993  -0.003331  -0.011572  -5.361473   0.373884   0.506300  -0.509514   0.001164   0.000115
 -2.376921   0.922217   3.970683  -0.716966  -0.192133  -0.456984   1.971203   0.327945   0.361988  -0.412435  -0.105482   0.084019  -0.662531   0.312513   0.140903  -0.926102  -0.624672   0.185335  -2.869231   0.169159   3.385685   0.053094   6.696544   0.045731   0.317173  -1.478914  -3.717528  -1.416247   1.112145  -0.119327  -4.408296   0.160038  -2.361901   0.040036  -9.293009  -0.108829   0.031033   1.384687   3.208569  -2.952560  -0.421132   0.391817  10.079110  -0.000570  -0.014297  -7.105533  -0.553823  -0.196200  -0.764255  -0.000495   0.002066  -3.044836  -0.475588   0.557851  10.858961  -0.005616  -0.016006  -7.770346   0.527659   0.746073  -0.748369   0.001511   0.000242
 -2.376879   0.919806   3.969217  -1.062600  -0.285914  -0.633146   2.559544   0.445987   0.496177  -0.485454  -0.119452   0.152486  -0.842328   0.404573   0.179353  -1.195386  -0.664415   0.532404  -3.712050   0.308546   4.597597   0.066700   8.708571   0.053051   0.411303  -1.423589  -4.452539  -1.826367   1.309030  -0.374948  -5.691004   0.124892  -3.220137   0.046165 -12.064795  -0.125337   0.030187   1.195748   3.871676  -3.727111  -0.551732   0.483491  13.175956  -0.000227  -0.017352  -9.159366  -0.711339  -0.267109  -0.988005  -0.000686   0.002368  -3.917364  -0.623324   0.750537  14.630343  -0.007837  -0.019327 -10.018484   0.661828   0.975538  -0.964694   0.001711   0.000375
 -2.376770   0.916653   3.967891  -1.412629  -0.392229  -0.813902   3.102711   0.563721   0.637646  -0.559787  -0.127043   0.235381  -1.015867   0.490463   0.215055  -1.446136  -0.661610   0.935073  -4.501739   0.451296   5.790625   0.076338  10.598118   0.057689   0.504535  -1.300814  -5.027427  -2.206068   1.458709  -0.670002  -6.887016   0.085834  -4.065827   0.048322 -14.661564  -0.135350   0.031590   0.955119   4.413136  -4.434151  -0.674252   0.552126  16.072110   0.000249  -0.019687 -11.076895  -0.856200  -0.338995  -1.197101  -0.000864   0.002548  -4.741191  -0.764498   0.935047  18.398373  -0.009890  -0.021801 -12.117205   0.778624   1.194310  -1.162783   0.001804   0.000508
 -2.376601   0.912740   3.966710  -1.755937  -0.512657  -0.996630   3.598977   0.680705   0.784524  -0.637114  -0.129037   0.330226  -1.182348   0.570593   0.248634  -1.679689  -0.633045   1.365538  -5.241066   0.587913   6.947560   0.082207  12.368999   0.060216   0.596323  -1.141569  -5.489989  -2.557635   1.577773  -0.980709  -8.001874   0.051529  -4.883385   0.047236 -17.090834  -0.140353   0.034781   0.693110   4.874651  -5.090087  -0.788395   0.599021  18.776738   0.000744  -0.021499 -12.867275  -0.989304  -0.410993  -1.392183  -0.001021   0.002638  -5.497875  -0.898620   1.109118  22.066162  -0.011657  -0.023546 -14.075206   0.880010   1.402299  -1.341975   0.001815   0.000632
 -2.376355   0.908060   3.965382  -2.001494  -0.622588  -1.073547   4.158740   0.833112   0.764322  -0.818442  -0.119808   0.495612  -1.450417   0.624475   0.270419  -1.721232  -0.778559   1.611282  -5.917197   0.784705   8.221431   0.077916  13.407093   0.053748   0.742322  -0.521954  -5.952534  -2.763784   1.689567  -1.118653  -9.075727   0.100707  -5.999419   0.046912 -19.169169  -0.135911   0.040419   0.164816   5.557594  -5.779814  -0.897827   0.550277  20.950963   0.000633  -0.021681 -14.285124  -1.133680  -0.322467  -1.503541  -0.000834   0.002462  -6.353000  -0.844907   1.138409  25.794293  -0.009953  -0.019540 -15.945163   1.175751   1.646362  -1.811069   0.002403  -0.000437
 -2.376210   0.904351   3.964188  -2.324538  -0.692175  -1.392111   4.792574   0.971371   0.936228  -0.933364  -0.125534   0.736690  -1.704895   0.676642   0.301189  -1.747884  -0.979534   1.934440  -6.540140   0.889838   9.450572   0.073789  14.335572   0.047154   0.871938  -0.124728  -6.405058  -2.943396   1.836510  -1.406821 -10.064019   0.214816  -7.129830   0.048398 -21.088602  -0.128033   0.044767  -0.263053   6.185100  -6.695554  -1.068683   0.799321  23.364375  -0.000941  -0.021630 -15.418605  -1.283771  -0.210619  -1.549996  -0.000639   0.002114  -7.011603  -0.806772   1.368576  29.301251  -0.006675  -0.015586 -17.686333   1.448414   1.884468  -2.217705   0.002599  -0.001219
 -2.375985   0.900677   3.963299  -2.626392  -0.656012  -1.626202   5.367726   1.050401   1.013959  -1.017697  -0.174399   0.947742  -1.929891   0.724477   0.337485  -1.757277  -1.234823   2.267582  -7.109733   0.921541  10.631436   0.068855  15.181111   0.041265   0.983180   0.125307  -6.744367  -3.101304   2.001556  -1.686892 -10.974760   0.364433  -8.203648   0.048466 -22.867232  -0.119341   0.043428  -0.596133   6.690074  -7.504570  -1.220598   0.966546  25.590115  -0.001547  -0.018932 -16.516420  -1.418061  -0.123567  -1.617748  -0.000478   0.001820  -7.594366  -0.767132   1.449935  32.598591  -0.001161  -0.011112 -19.314116   1.694297   2.113438  -2.602134   0.002476  -0.001982
 -2.375719   0.896965   3.962602  -2.890011  -0.567662  -1.837786   5.895228   1.101877   1.070401  -1.097511  -0.245090   1.131373  -2.138000   0.769079   0.369047  -1.755998  -1.519383   2.592502  -7.633416   0.903224  11.741518   0.063362  15.955164   0.036066   1.079262   0.274838  -7.037308  -3.243356   2.177551  -1.961156 -11.817086   0.538421  -9.211351   0.047288 -24.519110  -0.110385   0.037622  -0.862722   7.145432  -8.257705  -1.355369   1.116721  27.661193  -0.001585  -0.015399 -17.553006  -1.542451  -0.048749  -1.682455  -0.000354   0.001534  -8.124578  -0.719110   1.468085  35.689059   0.004923  -0.007415 -20.835390   1.916398   2.332971  -2.962140   0.002184  -0.002587
 -2.375433   0.893201   3.962046  -3.119098  -0.450946  -2.046646   6.384829   1.136289   1.118963  -1.172738  -0.326328   1.297348  -2.332000   0.810692   0.397731  -1.747391  -1.815379   2.900800  -8.116075   0.852201  12.777922   0.057626  16.667291   0.031461   1.163531   0.356157  -7.312398  -3.371943   2.357675  -2.224686 -12.596909   0.727861 -10.152529   0.045237 -26.054972  -0.101373   0.028585  -1.080808   7.576667  -8.971407  -1.482426   1.268530  29.604287  -0.001317  -0.011901 -18.525258  -1.659050   0.018413  -1.742562  -0.000259   0.001274  -8.604175  -0.667082   1.452663  38.579712   0.010688  -0.004951 -22.256676   2.117359   2.543280  -3.296041   0.001809  -0.002987
